<svg width="39" height="39" viewBox="0 0 39 39" fill="none" xmlns="http://www.w3.org/2000/svg">
<path d="M9.82906 7.56004C8.99235 6.91288 8.50856 6.07701 8.37769 5.05243C8.24582 4.02709 8.50308 3.09656 9.14948 2.26085C9.79587 1.42514 10.6317 0.941357 11.6571 0.809488C12.6824 0.677619 13.613 0.934881 14.4487 1.58128C15.2844 2.22767 15.7682 3.06354 15.9 4.08888C16.0319 5.11423 15.7746 6.04476 15.1282 6.88046C14.4819 7.71617 13.646 8.19996 12.6206 8.33183C11.5953 8.4637 10.6648 8.20643 9.82906 7.56004ZM21.1752 6.78401C20.3385 6.13685 19.8547 5.30098 19.7238 4.2764C19.5919 3.25106 19.8492 2.32053 20.4956 1.48482C21.142 0.649116 21.9779 0.165328 23.0032 0.0334589C24.0285 -0.0984096 24.9591 0.158853 25.7948 0.805246C26.6305 1.45164 27.1143 2.28751 27.2461 3.31286C27.378 4.3382 27.1207 5.26873 26.4744 6.10443C25.828 6.94014 24.9921 7.42393 23.9667 7.5558C22.9414 7.68767 22.0109 7.43041 21.1752 6.78401ZM30.1398 13.7179C29.3031 13.0707 28.8194 12.2349 28.6885 11.2103C28.5566 10.185 28.8139 9.25443 29.4603 8.41872C30.1067 7.58302 30.9425 7.09923 31.9679 6.96736C32.9932 6.83549 33.9237 7.09275 34.7595 7.73915C35.5952 8.38554 36.079 9.22141 36.2108 10.2468C36.3427 11.2721 36.0854 12.2026 35.439 13.0383C34.7926 13.874 33.9568 14.3578 32.9314 14.4897C31.9061 14.6216 30.9756 14.3643 30.1398 13.7179ZM32.2408 24.8948C31.4041 24.2476 30.9203 23.4118 30.7894 22.3872C30.6575 21.3618 30.9148 20.4313 31.5612 19.5956C32.2076 18.7599 33.0434 18.2761 34.0688 18.1442C35.0941 18.0124 36.0247 18.2696 36.8604 18.916C37.6961 19.5624 38.1799 20.3983 38.3117 21.4236C38.4436 22.449 38.1863 23.3795 37.5399 24.2152C36.8935 25.0509 36.0577 25.5347 35.0323 25.6666C34.007 25.7984 33.0765 25.5412 32.2408 24.8948ZM1.4834 24.9847C0.554067 24.2658 0.0616369 23.3166 0.00611087 22.137C-0.0511787 20.9576 0.29499 19.8833 1.04462 18.9141C1.98686 17.6959 3.22055 16.9849 4.74569 16.7812C6.2706 16.5756 7.78406 16.3437 9.28607 16.0854C10.62 15.8531 11.9012 15.4933 13.1298 15.006C14.3574 14.518 15.631 14.1475 16.9506 13.8945C17.8675 13.7218 18.7882 13.6778 19.7129 13.7625C20.6375 13.8473 21.4629 14.1705 22.1891 14.7321C22.9361 15.31 23.482 16.0347 23.8267 16.9063C24.1699 17.7798 24.3568 18.6846 24.3875 19.6205C24.4684 20.9567 24.4232 22.2789 24.2519 23.5871C24.0798 24.8964 24.0372 26.2214 24.1241 27.5622C24.2507 29.0801 24.4061 30.6029 24.5905 32.1305C24.7766 33.6579 24.3986 35.0307 23.4563 36.2489C22.7067 37.2181 21.7539 37.8232 20.598 38.0642C19.4423 38.307 18.3998 38.0689 17.4704 37.3501C16.1257 36.31 14.8801 35.1675 13.7337 33.9226C12.5872 32.6776 11.3417 31.5351 9.99695 30.495C8.65225 29.455 7.23333 28.5366 5.74018 27.7398C4.24703 26.9431 2.82811 26.0247 1.4834 24.9847Z" fill="#FFE4DD"/>
</svg>
