<svg width="42" height="40" viewBox="0 0 42 40" fill="none" xmlns="http://www.w3.org/2000/svg">
<path d="M32.0984 38.1542C30.5903 37.0369 30.7266 34.2943 32.4025 32.0323C34.0784 29.7703 36.6624 28.8412 38.1704 29.9585C39.6785 31.0758 39.5422 33.8184 37.8663 36.0804C36.1904 38.3424 33.6064 39.2715 32.0984 38.1542ZM33.0108 19.7885C31.5028 18.6713 31.639 15.9287 33.3149 13.6667C34.9908 11.4046 37.5749 10.4756 39.0829 11.5928C40.5909 12.7101 40.4546 15.4527 38.7787 17.7147C37.1028 19.9767 34.5188 20.9058 33.0108 19.7885ZM19.3513 9.66838C17.8433 8.55112 17.9795 5.80851 19.6554 3.5465C21.3313 1.28448 23.9154 0.35541 25.4234 1.47268C26.9314 2.58994 26.7951 5.33255 25.1192 7.59456C23.4433 9.85658 20.8593 10.7857 19.3513 9.66838ZM2.04742 15.8899C0.539411 14.7726 0.675668 12.03 2.35157 9.76797C4.02747 7.50595 6.61151 6.57688 8.11952 7.69414C9.62753 8.81141 9.49127 11.554 7.81537 13.816C6.13947 16.078 3.55543 17.0071 2.04742 15.8899ZM7.86516 22.3159C5.072 26.0859 8.24278 31.0586 12.0128 33.8518C15.7828 36.645 21.4634 38.2301 24.2566 34.4601C27.0497 30.6901 28.6088 22.8744 23.145 18.8263C17.6812 14.7783 10.6583 18.5459 7.86516 22.3159Z" stroke="#C5D6EA" stroke-width="2" stroke-linecap="round" stroke-linejoin="round"/>
</svg>
