<svg width="181" height="167" viewBox="0 0 181 167" fill="none" xmlns="http://www.w3.org/2000/svg">
<g opacity="0.04">
<path d="M170.623 138.593C184.211 71.4479 134.469 56.4127 133.951 56.2875C132.849 55.9713 131.642 56.1917 130.712 56.8721C129.783 57.562 129.237 58.664 129.237 59.8139V78.7298C125.212 78.9981 118.955 80.2055 114.202 84.5177C110.666 87.7279 108.606 92.0209 108.021 97.3201C100.566 99.0833 96.2249 106.443 96.2249 113.61C96.2249 117.559 97.5472 121.161 99.9524 123.816C101.888 125.924 105.443 128.454 111.509 128.454H124.043C122.912 133.801 120.881 142.981 118.696 149.794C117.326 154.116 116.339 158.332 115.706 162.673C115.409 164.686 116.789 166.545 118.801 166.87C118.993 166.899 119.165 166.918 119.338 166.918C121.13 166.918 122.701 165.615 122.97 163.775C123.554 159.798 124.464 155.946 125.72 152.027C129.083 141.429 132.044 126.124 132.169 125.464C132.36 124.382 132.092 123.28 131.383 122.427C130.674 121.564 129.639 121.104 128.537 121.104H111.509C104.341 121.104 103.565 115.882 103.565 113.62C103.565 109.749 106.018 104.296 111.509 104.296C113.54 104.296 115.188 102.648 115.188 100.617C115.188 95.9019 116.492 92.4236 119.117 89.9992C124.12 85.39 132.485 86.0511 132.562 86.0702C133.616 86.1661 134.622 85.8211 135.379 85.112C136.136 84.422 136.577 83.4159 136.577 82.3905V65.2185C147.616 70.4888 173.249 88.2741 163.341 137.194C161.529 147.131 168.343 153.264 175.261 157.949C176.929 159.099 179.238 158.658 180.359 156.972C181.509 155.305 181.068 152.995 179.382 151.874C171.994 146.843 169.694 143.365 170.547 138.573L170.623 138.593Z" fill="black"/>
<path d="M122.319 97.6942C122.319 100.837 124.187 103.386 126.487 103.386C128.797 103.386 130.656 100.837 130.656 97.6942C130.656 94.5512 128.787 92.0022 126.487 92.0022C124.178 92.0022 122.319 94.5512 122.319 97.6942Z" fill="black"/>
<path d="M23.0248 64.3071C34.361 65.1887 41.8641 68.7439 44.7581 74.5892C47.4315 80.0129 46.0805 87.3723 40.9346 95.2971C29.3301 113.178 27.0783 154.862 26.9728 156.626C26.877 158.657 28.4198 160.382 30.461 160.478H30.6526C32.5883 160.478 34.2364 158.954 34.3323 156.99C34.3323 156.568 36.5651 115.507 47.1154 99.2918C53.7369 89.1152 55.2318 79.1781 51.3605 71.331C48.5144 65.543 41.3755 58.3561 23.618 56.957C17.533 56.4875 13.2881 54.3793 10.6144 50.5558C6.02433 43.9534 7.2796 33.8534 8.19001 29.1868C12.1859 28.9184 20.7049 28.2285 34.9243 26.7624C36.0742 26.6378 37.1091 25.9766 37.7224 24.9704L39.0447 22.7089C44.7846 12.8199 47.9469 7.34813 71.6445 7.34813C88.0307 7.34813 112.639 30.7967 114.825 48.4873C115.831 56.5559 111.835 61.6155 102.655 63.9153C94.2892 66.0043 87.7157 65.0652 83.1544 61.0981C72.1918 51.5826 74.5397 27.836 74.5684 27.5882C74.7888 25.5759 73.3131 23.7648 71.3104 23.5445C69.2789 23.3241 67.4869 24.7998 67.2666 26.8025C67.142 27.9332 64.4973 54.572 78.3344 66.6169C84.8122 72.2611 93.59 73.7271 104.455 71.0345C117.143 67.8722 123.592 59.3056 122.145 47.586C119.519 26.2169 91.6719 0 71.6641 0C45.0427 0 39.7439 6.87075 32.7107 19.0118L32.3658 19.6251C13.3827 21.5895 5.18991 22.0016 5.08443 22.0016C3.51288 22.0782 2.16176 23.1515 1.72093 24.6463C1.50053 25.3842 -3.48242 43.0449 4.59577 54.6973C8.54385 60.3893 14.7532 63.5994 23.0902 64.2606L23.0248 64.3071Z" fill="black"/>
<path d="M49.8063 26.0944C49.8063 29.2373 51.6749 31.7864 53.9746 31.7864C56.2841 31.7864 58.143 29.2373 58.143 26.0944C58.143 22.9514 56.2744 20.4023 53.9746 20.4023C51.6652 20.4023 49.8063 22.9514 49.8063 26.0944Z" fill="black"/>
</g>
</svg>
