<svg width="40" height="40" viewBox="0 0 40 40" fill="none" xmlns="http://www.w3.org/2000/svg">
<path d="M14.4444 40C12.8578 40 11.5356 39.4711 10.4778 38.4133C9.41852 37.3526 8.88889 36.0296 8.88889 34.4444C8.88889 33.7689 8.85704 33.203 8.79333 32.7467C8.72963 32.2904 8.57037 31.9363 8.31556 31.6844C8.0637 31.4296 7.70963 31.2563 7.25333 31.1644C6.79704 31.0726 6.23111 31.0259 5.55556 31.0244C3.96889 31.0244 2.64667 30.5096 1.58889 29.48C0.529629 28.4504 0 27.1422 0 25.5556C0 23.9689 0.529629 22.6467 1.58889 21.5889C2.64815 20.5311 3.97037 20.0015 5.55556 20C6.15111 20 6.71556 20.0756 7.24889 20.2267C7.78222 20.3778 8.23482 20.6044 8.60667 20.9067C9.00667 21.2193 9.46963 21.3756 9.99556 21.3756C10.5215 21.3756 10.9704 21.1904 11.3422 20.82L20.6489 11.5133C21.0193 11.143 21.2333 10.6726 21.2911 10.1022C21.3489 9.53185 21.2207 9.03333 20.9067 8.60667C20.6326 8.20519 20.4126 7.74519 20.2467 7.22667C20.0807 6.70815 19.9985 6.15111 20 5.55556C20 3.96889 20.5296 2.64667 21.5889 1.58889C22.6467 0.529629 23.9689 0 25.5556 0C27.1422 0 28.4652 0.529629 29.5244 1.58889C30.5837 2.64815 31.1126 3.97037 31.1111 5.55556C31.1111 6.23111 31.143 6.79704 31.2067 7.25333C31.2704 7.70963 31.4296 8.0637 31.6844 8.31556C31.9363 8.57037 32.2911 8.72963 32.7489 8.79333C33.2067 8.85704 33.7719 8.88889 34.4444 8.88889C36.0311 8.88889 37.3541 9.41852 38.4133 10.4778C39.4711 11.5356 40 12.8578 40 14.4444C40 16.0311 39.4711 17.3541 38.4133 18.4133C37.3556 19.4726 36.0326 20.0015 34.4444 20C33.8489 20 33.2919 19.9178 32.7733 19.7533C32.2548 19.5889 31.7948 19.3689 31.3933 19.0933C30.9667 18.8089 30.4822 18.6881 29.94 18.7311C29.3993 18.7741 28.9437 18.9807 28.5733 19.3511L19.3511 28.5733C18.9807 28.9437 18.7667 29.3778 18.7089 29.8756C18.6511 30.3733 18.7511 30.8511 19.0089 31.3089C19.2533 31.7089 19.48 32.183 19.6889 32.7311C19.8963 33.2778 20 33.8489 20 34.4444C20 36.0311 19.4711 37.3541 18.4133 38.4133C17.3526 39.4711 16.0296 40 14.4444 40ZM14.4444 37.7778C15.4074 37.7778 16.2037 37.463 16.8333 36.8333C17.463 36.2037 17.7778 35.4074 17.7778 34.4444C17.7778 34.1111 17.7319 33.7874 17.64 33.4733C17.5481 33.1593 17.4089 32.8533 17.2222 32.5556C16.6489 31.6963 16.4044 30.7496 16.4889 29.7156C16.5704 28.683 17 27.7778 17.7778 27L27 17.7778C27.7778 17 28.683 16.577 29.7156 16.5089C30.7481 16.4407 31.6948 16.6785 32.5556 17.2222C32.8519 17.4074 33.1578 17.5467 33.4733 17.64C33.7889 17.7333 34.1126 17.7793 34.4444 17.7778C35.4074 17.7778 36.2037 17.463 36.8333 16.8333C37.463 16.2037 37.7778 15.4074 37.7778 14.4444C37.7778 13.4815 37.463 12.6852 36.8333 12.0556C36.2037 11.4259 35.4074 11.1111 34.4444 11.1111C33.3763 11.1111 32.5044 11.0252 31.8289 10.8533C31.1533 10.68 30.5807 10.3585 30.1111 9.88889C29.6415 9.41926 29.32 8.84667 29.1467 8.17111C28.9733 7.49556 28.8874 6.6237 28.8889 5.55556C28.8889 4.59259 28.5741 3.7963 27.9444 3.16667C27.3148 2.53704 26.5185 2.22222 25.5556 2.22222C24.5926 2.22222 23.7963 2.53704 23.1667 3.16667C22.537 3.7963 22.2222 4.59259 22.2222 5.55556C22.2222 5.90667 22.2667 6.23481 22.3556 6.54C22.4444 6.84519 22.5852 7.14667 22.7778 7.44444C23.3511 8.3037 23.5956 9.25037 23.5111 10.2844C23.4296 11.317 23 12.2222 22.2222 13L13 22.2222C12.2222 23 11.317 23.423 10.2844 23.4911C9.25185 23.5593 8.30519 23.3215 7.44444 22.7778C7.14815 22.5926 6.84296 22.4541 6.52889 22.3622C6.21482 22.2704 5.89037 22.2237 5.55556 22.2222C4.59259 22.2222 3.7963 22.537 3.16667 23.1667C2.53704 23.7963 2.22222 24.5926 2.22222 25.5556C2.22222 26.5185 2.53704 27.3007 3.16667 27.9022C3.7963 28.5037 4.59259 28.8044 5.55556 28.8044C6.6237 28.8044 7.49556 28.9044 8.17111 29.1044C8.84667 29.3059 9.41926 29.6415 9.88889 30.1111C10.3585 30.5807 10.68 31.1674 10.8533 31.8711C11.0267 32.5748 11.1126 33.4622 11.1111 34.5333C11.1111 35.4963 11.4259 36.2778 12.0556 36.8778C12.6852 37.4778 13.4815 37.7778 14.4444 37.7778Z" fill="#D7E1ED"/>
</svg>
