<svg width="26" height="26" viewBox="0 0 26 26" fill="none" xmlns="http://www.w3.org/2000/svg">
<path d="M9.21149 4.61609L8.67414 3.40806C8.32347 2.61871 8.14746 2.22403 7.88479 1.92136C7.55617 1.5423 7.1273 1.26362 6.64743 1.11734C6.26475 1 5.83274 1 4.96738 1C3.70335 1 3.07134 1 2.54066 1.24267C1.88601 1.56074 1.37927 2.11906 1.12596 2.80138C0.935286 3.35206 0.989954 3.91874 1.09929 5.05343C2.26376 17.1204 8.87993 23.7361 20.9478 24.9006C22.0811 25.0099 22.6478 25.0646 23.1998 24.8739C23.8814 24.6206 24.4392 24.1144 24.7572 23.4606C24.9999 22.9285 24.9999 22.2965 24.9999 21.0325C24.9999 20.1671 24.9999 19.7351 24.8825 19.3525C24.7363 18.8726 24.4576 18.4437 24.0785 18.1151C23.7772 17.8524 23.3812 17.6777 22.5918 17.3257L21.3838 16.7897C20.5278 16.4097 20.1011 16.219 19.6664 16.1777C19.2502 16.1378 18.8305 16.1962 18.441 16.3484C18.0344 16.507 17.6757 16.8057 16.9557 17.4057C16.2397 18.0018 15.8823 18.2991 15.445 18.4591C15.0252 18.6043 14.5775 18.6503 14.1369 18.5938C13.6756 18.5271 13.3236 18.3378 12.6169 17.9604C10.4235 16.7871 9.21282 15.5777 8.03946 13.383C7.66212 12.6763 7.47411 12.3243 7.40611 11.8629C7.34932 11.4229 7.39495 10.9757 7.53945 10.5562C7.69945 10.1176 7.99813 9.76022 8.59414 9.0442C9.19416 8.32418 9.49416 7.96551 9.6515 7.55883C9.8035 7.16949 9.86217 6.74947 9.82217 6.33346C9.78217 5.90012 9.5915 5.47211 9.21016 4.61609" stroke="#EE6C4D" stroke-width="2" stroke-linecap="round" stroke-linejoin="round"/>
</svg>
