<svg width="26" height="32" viewBox="0 0 26 32" fill="none" xmlns="http://www.w3.org/2000/svg">
<path d="M17.8 13.0002C17.8 14.2732 17.2943 15.4941 16.3941 16.3943C15.494 17.2945 14.2731 17.8002 13 17.8002C11.727 17.8002 10.5061 17.2945 9.6059 16.3943C8.70572 15.4941 8.20001 14.2732 8.20001 13.0002C8.20001 11.7272 8.70572 10.5063 9.6059 9.60608C10.5061 8.70591 11.727 8.2002 13 8.2002C14.2731 8.2002 15.494 8.70591 16.3941 9.60608C17.2943 10.5063 17.8 11.7272 17.8 13.0002Z" stroke="#EE6C4D" stroke-width="2" stroke-linecap="round" stroke-linejoin="round"/>
<path d="M25 13C25 24.4272 13 31 13 31C13 31 1 24.4272 1 13C1 9.8174 2.26428 6.76516 4.51472 4.51472C6.76516 2.26428 9.8174 1 13 1C16.1826 1 19.2348 2.26428 21.4853 4.51472C23.7357 6.76516 25 9.8174 25 13Z" stroke="#EE6C4D" stroke-width="2" stroke-linecap="round" stroke-linejoin="round"/>
</svg>
