<svg width="44" height="40" viewBox="0 0 44 40" fill="none" xmlns="http://www.w3.org/2000/svg">
<path d="M28.518 37.0457C28.3779 36.2054 27.9578 35.4351 27.3975 34.8748C27.1874 34.6647 27.0474 34.3846 26.8373 34.1745C26.6272 33.9644 26.4171 33.7543 26.137 33.4742C25.5767 32.984 25.0165 32.4938 24.4563 32.0736C24.1761 31.8635 23.826 31.6534 23.4758 31.3733C23.1257 31.1632 22.7755 30.9531 22.4254 30.7431L21.8652 30.4629C21.7951 30.3929 21.6551 30.3929 21.585 30.3229L21.3049 30.1828C20.8847 30.0428 20.5346 29.9027 20.1144 29.6926C18.4337 29.1324 16.683 28.9223 14.9322 29.0623C13.2515 29.2724 11.6408 29.7626 10.1702 30.603C9.82004 30.8131 9.4699 31.0232 9.18978 31.2333L8.97969 31.3733C8.90966 31.4434 8.83963 31.5134 8.7696 31.5834L8.34942 31.9336C8.0693 32.2137 7.78918 32.4238 7.50906 32.7039C7.22894 32.984 7.01885 33.2641 6.73874 33.5442C6.31856 34.0345 5.89838 34.5947 5.54823 35.225C5.19808 35.6451 5.05802 35.9253 4.91796 36.2054C4.7779 36.4855 4.63784 36.7656 4.56781 36.9757C4.21766 37.676 4.0776 38.5164 4.14763 39.2867C4.28769 39.8469 4.70787 40.057 5.40817 39.987C5.61826 39.987 5.75832 39.917 5.89838 39.917C6.10847 39.8469 6.31856 39.8469 6.52865 39.7769C6.94882 39.6368 7.43903 39.4968 7.92924 39.2867C8.20936 39.2167 8.48948 39.0766 8.7696 39.0066C9.04972 38.8665 9.32984 38.7965 9.67999 38.7264L10.1702 38.5864C10.2402 38.5864 10.3103 38.5164 10.3803 38.5164C10.4503 38.5164 10.5203 38.4463 10.6604 38.4463C11.0106 38.3763 11.3607 38.2362 11.6408 38.1662C13.1114 37.746 14.6521 37.4659 16.1928 37.3259C17.7334 37.1858 19.3441 37.1858 20.8847 37.3259C21.2349 37.3959 21.585 37.3959 21.9352 37.3959H22.2153L22.4954 37.4659L22.9856 37.5359C23.3358 37.606 23.6159 37.606 23.9661 37.676C24.3162 37.746 24.5263 37.746 24.8064 37.746C25.3667 37.8161 25.8569 37.8861 26.3471 37.9561C26.5572 37.9561 26.7672 37.9561 26.9773 37.9561C27.1874 37.9561 27.3275 37.9561 27.5376 37.9561C28.1678 37.8861 28.518 37.606 28.518 37.0457Z" fill="#EE6C4D"/>
<path d="M34.4705 28.4321C34.7506 28.0119 34.5406 27.3116 33.9803 26.2611C33.8403 25.981 33.7002 25.7709 33.4901 25.4208C33.28 25.1407 33.0699 24.8606 32.8598 24.5104C32.2996 23.8101 31.7394 23.1798 31.1091 22.5496C30.7589 22.1994 30.4088 21.8493 30.0586 21.4991C29.7085 21.149 29.2883 20.7988 28.8681 20.3786C28.0278 19.6083 27.1174 18.838 26.137 18.0677C24.0361 16.387 21.7951 14.9163 19.4141 13.5858C17.1031 12.2552 14.7221 11.1347 12.2711 10.1543C11.1506 9.73413 10.0301 9.31395 9.04972 9.03383C8.55951 8.89377 8.0693 8.75371 7.57909 8.61365C7.08889 8.47359 6.66871 8.40356 6.1785 8.2635C5.40817 8.12344 4.56782 7.98338 3.72746 7.91335C3.37731 7.91335 3.02716 7.84332 2.74704 7.84332C2.46692 7.84332 2.11677 7.84332 1.90668 7.84332C0.716179 8.05341 0.0859112 8.33353 0.0158814 8.82374C-0.194208 9.80416 1.6966 11.2748 4.70787 13.1656C5.05802 13.3757 5.4782 13.6558 5.89838 13.8659L7.22895 14.6362C8.13933 15.1264 9.11975 15.7567 10.1002 16.3169C12.131 17.5074 14.302 18.6979 16.6129 20.0285C18.9239 21.3591 21.0948 22.6196 23.1257 23.7401C24.1061 24.3003 25.0865 24.8606 25.9969 25.3508L27.3275 26.0511C27.7477 26.2611 28.1678 26.4712 28.588 26.6813C31.7394 28.4321 33.9103 29.2724 34.4705 28.4321Z" fill="#EE6C4D"/>
<path d="M43.1542 18.9781C43.6444 18.768 43.7144 18.4178 43.5043 17.8576C43.4343 17.7175 43.3643 17.5775 43.2942 17.4374C43.2242 17.2973 43.0842 17.0873 43.0141 16.9472C42.804 16.597 42.4539 16.2469 42.1037 15.8267C41.9637 15.6166 41.7536 15.4065 41.5435 15.1965L40.9833 14.4962C40.5631 14.0059 40.1429 13.5157 39.6527 12.9555C38.7423 11.835 37.7619 10.6445 36.8515 9.38399C35.9411 8.12345 35.1008 6.86292 34.4005 5.74244C34.0503 5.1822 33.7002 4.62196 33.4201 4.13176L32.9298 3.43146C32.7898 3.22137 32.6497 2.94125 32.5097 2.73116C32.2295 2.31098 31.9494 1.8908 31.6693 1.54065C31.5293 1.40059 31.3892 1.19051 31.2491 1.05045C31.1091 0.910387 31.039 0.770327 30.899 0.630268C30.4788 0.210089 29.9186 0 29.2883 0C28.658 0.14006 28.1678 0.560238 27.8177 1.12048C27.6776 1.26054 27.6076 1.47062 27.5376 1.61068C27.4675 1.82077 27.3975 2.03086 27.3275 2.24095C27.1874 2.73116 27.0473 3.15134 26.9773 3.64155C26.9773 3.92167 26.9073 4.20179 26.9073 4.4819C26.9073 4.76202 26.9073 5.04214 26.9073 5.32226C26.9773 5.95253 27.0473 6.5828 27.2574 7.21306C27.6776 8.68369 28.3779 10.0143 29.2883 11.2748C30.3387 12.6054 31.5293 13.8659 32.8598 14.9163C33.5601 15.4065 34.1904 15.8968 34.9607 16.3169C35.3109 16.527 35.661 16.7371 36.0112 16.9472C36.3613 17.1573 36.7115 17.2973 37.0616 17.5074C37.6919 17.7876 38.3922 18.0677 39.0224 18.3478C39.3026 18.4879 39.6527 18.5579 39.9328 18.6279C40.2129 18.6979 40.4931 18.768 40.7732 18.838C41.5435 19.1181 42.3839 19.1181 43.1542 18.9781Z" fill="#EE6C4D"/>
</svg>
