<svg width="162" height="170" viewBox="0 0 162 170" fill="none" xmlns="http://www.w3.org/2000/svg">
<g opacity="0.1">
<path d="M59.7519 90.2885C59.7519 93.8274 65.0636 93.8274 65.0636 90.2885C65.0636 86.7495 59.7519 86.7495 59.7519 90.2885Z" fill="#293241"/>
<path d="M45.1441 90.2885C45.1441 93.8274 50.4559 93.8274 50.4559 90.2885C50.4559 86.7495 45.1441 86.7495 45.1441 90.2885Z" fill="#293241"/>
<path d="M14.6876 42.7147C14.6344 42.6948 14.588 42.6749 14.5415 42.655C13.9306 42.3827 -0.364616 35.889 0.00712585 25.5043C0.00712585 25.4446 0.0137634 25.3848 0.020401 25.325C0.637894 19.3626 2.27786 12.1121 6.58048 11.4546C6.66679 11.4413 22.715 10.6313 22.715 10.6313L22.7084 10.6246C23.5383 10.4454 24.2754 9.98722 24.8066 9.32326C27.7014 5.43232 38.5573 -6.35981 57.1021 4.44969C59.2401 5.06053 68.4959 7.84259 72.4731 11.1889C73.5421 12.0322 81.2841 18.7515 81.9082 37.2362V37.2428C81.9148 37.3756 81.9082 37.5017 81.8949 37.6345C81.8684 37.8802 81.1579 43.6235 76.1118 46.0669C71.5969 48.2515 65.4152 46.9434 57.8461 42.2292L57.8395 42.2358C56.1663 41.2133 54.2939 40.556 52.3417 40.2971C51.0736 41.0341 49.4469 40.5959 48.7165 39.3277C47.9861 38.0528 48.4177 36.4328 49.6859 35.6958C52.9527 33.8101 58.2909 36.393 60.5352 37.6544C66.3648 41.2797 71.0591 42.5744 73.7547 41.2929L73.7614 41.2996C75.2752 40.4165 76.3177 38.9026 76.59 37.1763C75.9725 20.7829 69.273 15.438 69.2332 15.404C69.1801 15.3641 69.127 15.3243 69.0739 15.2778C66.2453 12.8675 58.1981 10.2715 55.3363 9.46801C55.1106 9.40825 54.8981 9.3153 54.6989 9.19578C40.7156 0.896152 32.641 7.70183 29.0766 12.4957H29.07C27.596 14.4278 25.3915 15.6695 22.9748 15.9284L7.65038 16.6986C6.79385 17.7941 5.71825 21.9107 5.29993 25.7684C5.18707 31.3524 13.3672 36.2857 16.6274 37.7663C28.8047 42.4208 24.6482 60.222 22.8754 67.8318L22.4039 69.8437C19.4426 82.4459 16.8863 93.3345 20.6245 105.772L28.944 133.427C31.4139 141.156 31.301 147.311 28.6053 151.72H28.6186C26.9853 154.396 24.3758 156.334 21.3348 157.111C20.4783 157.457 19.7944 158.12 19.4358 158.97C18.8648 160.823 18.8582 162.808 19.4225 164.661H31.2944H31.2878C32.7551 164.661 33.9436 165.849 33.9436 167.317C33.9436 168.784 32.7551 169.973 31.2878 169.973H17.4705C16.3882 169.973 15.4123 169.315 15.0072 168.313C14.7416 167.655 12.4708 161.726 14.5491 156.886C15.5052 154.668 17.3244 152.935 19.5819 152.085C19.7545 152.019 19.9405 151.966 20.1197 151.939C21.7797 151.494 23.2005 150.419 24.0836 148.951C25.9095 145.963 25.8432 141.156 23.8778 135.001L15.545 107.3C11.3952 93.5027 14.237 81.4245 17.2381 68.6304L17.7095 66.6318C19.1703 60.3573 22.5954 45.6825 14.6876 42.7147Z" fill="#293241"/>
<path d="M46.2472 145.053C34.3488 131.973 38.7509 111.729 40.3312 105.985C27.0849 90.9997 37.569 71.8117 37.6819 71.6111C38.0338 70.987 38.6181 70.5288 39.3086 70.3429C39.9992 70.157 40.7362 70.2566 41.3536 70.6218L49.2815 75.3094C53.6106 74.1209 58.1854 74.1209 62.5077 75.3094L70.4356 70.6218H70.4423C71.1129 70.2234 71.9229 70.1437 72.6599 70.396C73.3903 70.6483 73.9812 71.2127 74.2667 71.9431C77.8589 80.8004 77.5002 90.7731 73.2907 99.3586C85.0164 103.263 93.5876 109.962 98.7872 119.297C108.003 135.85 104.079 155.908 101.636 164.66C101.636 164.66 134.263 164.667 134.462 164.667C154.991 164.667 156.312 149.82 156.332 149.714C158.69 136.873 148.803 130.685 146.147 129.271C146.287 130.121 146.519 131.137 146.758 132.199V132.206C147.442 134.59 147.774 137.053 147.747 139.53C147.329 144.835 145.742 148.414 142.914 150.465C139.043 153.267 133.698 152.411 130.019 151.514V151.521C128.393 151.083 126.852 150.392 125.445 149.463C125.391 149.708 125.338 149.954 125.279 150.2C124.907 151.607 123.486 152.47 122.065 152.138C121.381 151.966 120.79 151.534 120.425 150.93C120.06 150.326 119.954 149.609 120.119 148.925C120.89 145.439 121.175 141.873 120.956 138.315C117.756 95.8798 92.7842 78.4045 92.5309 78.2243C92.4911 78.1978 92.4579 78.1712 92.418 78.1447C84.5433 72.3615 78.0164 64.9317 73.3024 56.3723C72.9638 55.7482 72.8974 55.0245 73.0966 54.3472C73.3024 53.67 73.7672 53.1056 74.3847 52.7736C75.0089 52.4416 75.7326 52.3686 76.4098 52.5744C77.0804 52.7736 77.6515 53.2384 77.9834 53.8625C82.3457 61.7041 88.3347 68.5297 95.559 73.862C97.3783 75.1103 122.794 93.3294 126.228 137.544C126.228 137.57 126.487 141.275 126.547 143.095C126.573 143.938 129.116 145.837 131.274 146.361C135.444 147.371 138.233 147.304 139.799 146.169C141.273 145.1 142.163 142.729 142.455 139.117V139.111C142.402 137.179 142.11 135.253 141.579 133.387C141.247 132.053 140.981 130.698 140.795 129.331C140.424 127.604 140.995 125.811 142.296 124.616C143.87 123.494 145.921 123.295 147.681 124.105C153.67 126.761 164.254 135.711 161.578 150.577C161.332 152.768 158.616 169.978 134.5 169.978C134.281 169.978 100.684 169.972 100.684 169.972H100.677C99.2228 170.012 97.8351 169.348 96.9388 168.199C96.0756 166.997 95.83 165.457 96.2815 164.043C98.0077 158.153 102.948 137.703 94.1435 121.887C89.1902 112.996 80.6052 106.808 68.613 103.488C67.7764 103.256 67.1058 102.632 66.8203 101.815C66.5281 100.992 66.6609 100.089 67.1655 99.3783C71.395 92.6722 72.5437 84.4722 70.3194 76.8632L64.1909 80.4885C63.4871 80.9068 62.6372 80.9732 61.8736 80.6744C57.9562 79.3863 53.7266 79.3996 49.8226 80.7142C49.0856 80.9732 48.2689 80.8869 47.5983 80.4885L41.1643 76.6839C39.086 81.8163 35.7795 93.8413 45.2013 103.421C45.8985 104.132 46.1441 105.167 45.8321 106.117C45.759 106.343 38.5882 128.744 50.1744 141.481V141.474C51.7215 143.227 52.6311 145.451 52.7572 147.788V157.595V157.588C52.7572 158.843 51.8742 159.932 50.6458 160.191C48.2622 160.895 46.2437 162.495 45.0286 164.66H59.4633C60.0078 162.143 61.535 159.945 63.7061 158.558C62.418 155.245 61.7806 151.712 61.8138 148.153C61.8536 144.276 63.8124 140.664 67.0392 138.519C68.2742 137.729 69.9208 138.087 70.711 139.322C71.5012 140.557 71.1426 142.197 69.9076 142.994C68.1548 144.216 67.1124 146.221 67.119 148.359C67.0061 151.247 68.0552 156.3 69.516 158.226H69.5226C70.0737 158.956 70.2132 159.925 69.8878 160.782C69.5558 161.639 68.8055 162.269 67.9091 162.442C65.7179 162.993 64.264 165.071 64.4897 167.315C64.4897 168.783 63.3012 169.971 61.8338 169.971H42.074C40.6266 169.971 39.4446 168.816 39.4181 167.375L39.365 164.846C39.3584 164.48 39.4248 164.115 39.5642 163.783C41.0249 160.158 43.86 157.263 47.4389 155.709V147.781V147.788C47.3127 146.779 46.9011 145.829 46.2437 145.052L46.2472 145.053Z" fill="#293241"/>
<path d="M86.7696 137.868C86.7231 137.868 86.6833 137.868 86.6368 137.862C85.1694 137.788 84.0407 136.54 84.1137 135.079C84.273 131.939 81.5773 127.676 80.1829 126.913H80.1896C78.9015 126.209 78.4368 124.589 79.1405 123.307C79.8443 122.019 81.4578 121.554 82.7459 122.258C85.9794 124.038 89.6777 130.266 89.4188 135.345C89.3524 136.753 88.1839 137.868 86.7696 137.868Z" fill="#293241"/>
<path d="M53.7754 102.239C52.3147 102.239 51.1195 101.051 51.1195 99.5831C51.1195 98.1224 52.3147 96.9272 53.7754 96.9272H56.4313C57.8987 96.9272 59.0872 98.1224 59.0872 99.5831C59.0872 101.051 57.8987 102.239 56.4313 102.239H53.7754Z" fill="#293241"/>
<path d="M33.7183 18.2669C33.3 18.0678 32.4899 17.7889 32.6692 17.178C32.7356 16.9523 32.9547 16.7664 33.2801 16.5871C36.0024 15.06 36.8921 13.8183 37.4232 13.7187C39.7273 13.2739 40.4709 16.1953 40.597 16.7863H40.6037C40.5838 17.2843 40.3447 17.7557 39.9596 18.0744C39.0898 18.6853 38.054 18.9973 36.9983 18.9774C35.8629 19.0106 34.7342 18.7649 33.7183 18.2669Z" fill="#293241"/>
<path d="M73.044 164.667H88.9661C90.4335 164.667 91.622 165.855 91.622 167.322C91.622 168.79 90.4335 169.978 88.9661 169.978H73.044C71.5767 169.978 70.3882 168.79 70.3882 167.322C70.3882 165.855 71.5767 164.667 73.044 164.667Z" fill="#293241"/>
</g>
</svg>
