<svg width="97" height="82" viewBox="0 0 97 82" fill="none" xmlns="http://www.w3.org/2000/svg">
<path opacity="0.4" d="M44.7692 48.4545V70.8182C44.7692 73.9242 43.6811 76.5644 41.5048 78.7386C39.3285 80.9129 36.6859 82 33.5769 82H11.1923C8.08333 82 5.4407 80.9129 3.26442 78.7386C1.08814 76.5644 0 73.9242 0 70.8182V29.8182C0 25.7803 0.786959 21.9268 2.36088 18.2578C3.9348 14.5888 6.0625 11.4148 8.74399 8.7358C11.4255 6.05682 14.6025 3.93111 18.2749 2.35866C21.9474 0.786222 25.8045 0 29.8462 0H33.5769C34.5873 0 35.4617 0.368845 36.2001 1.10653C36.9385 1.84422 37.3077 2.7178 37.3077 3.72727V11.1818C37.3077 12.1913 36.9385 13.0649 36.2001 13.8026C35.4617 14.5402 34.5873 14.9091 33.5769 14.9091H29.8462C25.7268 14.9091 22.2097 16.3651 19.2951 19.277C16.3804 22.1889 14.9231 25.7027 14.9231 29.8182V31.6818C14.9231 33.2348 15.4671 34.5549 16.5553 35.642C17.6434 36.7292 18.9647 37.2727 20.5192 37.2727H33.5769C36.6859 37.2727 39.3285 38.3598 41.5048 40.5341C43.6811 42.7083 44.7692 45.3485 44.7692 48.4545ZM97 48.4545V70.8182C97 73.9242 95.9119 76.5644 93.7356 78.7386C91.5593 80.9129 88.9167 82 85.8077 82H63.4231C60.3141 82 57.6715 80.9129 55.4952 78.7386C53.3189 76.5644 52.2308 73.9242 52.2308 70.8182V29.8182C52.2308 25.7803 53.0177 21.9268 54.5916 18.2578C56.1656 14.5888 58.2933 11.4148 60.9748 8.7358C63.6562 6.05682 66.8332 3.93111 70.5057 2.35866C74.1782 0.786222 78.0353 0 82.0769 0H85.8077C86.8181 0 87.6925 0.368845 88.4309 1.10653C89.1693 1.84422 89.5385 2.7178 89.5385 3.72727V11.1818C89.5385 12.1913 89.1693 13.0649 88.4309 13.8026C87.6925 14.5402 86.8181 14.9091 85.8077 14.9091H82.0769C77.9575 14.9091 74.4405 16.3651 71.5258 19.277C68.6112 22.1889 67.1538 25.7027 67.1538 29.8182V31.6818C67.1538 33.2348 67.6979 34.5549 68.7861 35.642C69.8742 36.7292 71.1955 37.2727 72.75 37.2727H85.8077C88.9167 37.2727 91.5593 38.3598 93.7356 40.5341C95.9119 42.7083 97 45.3485 97 48.4545Z" fill="#E3B9B0"/>
</svg>
